<svg width="109" height="25" viewBox="0 0 109 25" fill="none" xmlns="http://www.w3.org/2000/svg">
<path d="M0.992 19.2659V2.46587H4.88V16.0979H13.304V19.2659H0.992ZM21.2861 19.4579C19.9101 19.4579 18.6861 19.1699 17.6141 18.5939C16.5581 18.0179 15.7181 17.2339 15.0941 16.2419C14.4861 15.2339 14.1821 14.0899 14.1821 12.8099C14.1821 11.5139 14.4861 10.3699 15.0941 9.37787C15.7181 8.36987 16.5581 7.58587 17.6141 7.02587C18.6861 6.44987 19.9101 6.16187 21.2861 6.16187C22.6461 6.16187 23.8621 6.44987 24.9341 7.02587C26.0061 7.58587 26.8461 8.36187 27.4541 9.35387C28.0621 10.3459 28.3661 11.4979 28.3661 12.8099C28.3661 14.0899 28.0621 15.2339 27.4541 16.2419C26.8461 17.2339 26.0061 18.0179 24.9341 18.5939C23.8621 19.1699 22.6461 19.4579 21.2861 19.4579ZM21.2861 16.3859C21.9101 16.3859 22.4701 16.2419 22.9661 15.9539C23.4621 15.6659 23.8541 15.2579 24.1421 14.7299C24.4301 14.1859 24.5741 13.5459 24.5741 12.8099C24.5741 12.0579 24.4301 11.4179 24.1421 10.8899C23.8541 10.3619 23.4621 9.95387 22.9661 9.66587C22.4701 9.37787 21.9101 9.23387 21.2861 9.23387C20.6621 9.23387 20.1021 9.37787 19.6061 9.66587C19.1101 9.95387 18.7101 10.3619 18.4061 10.8899C18.1181 11.4179 17.9741 12.0579 17.9741 12.8099C17.9741 13.5459 18.1181 14.1859 18.4061 14.7299C18.7101 15.2579 19.1101 15.6659 19.6061 15.9539C20.1021 16.2419 20.6621 16.3859 21.2861 16.3859ZM36.9406 24.1139C35.7246 24.1139 34.5486 23.9619 33.4126 23.6579C32.2926 23.3699 31.3566 22.9299 30.6046 22.3379L32.0926 19.6499C32.6366 20.0979 33.3246 20.4499 34.1566 20.7059C35.0046 20.9779 35.8366 21.1139 36.6526 21.1139C37.9806 21.1139 38.9406 20.8179 39.5326 20.2259C40.1406 19.6339 40.4446 18.7539 40.4446 17.5859V15.6419L40.6846 12.4019L40.6366 9.13787V6.35387H44.1886V17.1059C44.1886 19.5059 43.5646 21.2739 42.3166 22.4099C41.0686 23.5459 39.2766 24.1139 36.9406 24.1139ZM36.3646 18.6419C35.1646 18.6419 34.0766 18.3859 33.1006 17.8739C32.1406 17.3459 31.3646 16.6179 30.7726 15.6899C30.1966 14.7459 29.9086 13.6499 29.9086 12.4019C29.9086 11.1379 30.1966 10.0419 30.7726 9.11387C31.3646 8.16987 32.1406 7.44187 33.1006 6.92987C34.0766 6.41787 35.1646 6.16187 36.3646 6.16187C37.4526 6.16187 38.4126 6.38587 39.2446 6.83387C40.0766 7.26587 40.7246 7.94587 41.1886 8.87387C41.6526 9.78587 41.8846 10.9619 41.8846 12.4019C41.8846 13.8259 41.6526 15.0019 41.1886 15.9299C40.7246 16.8419 40.0766 17.5219 39.2446 17.9699C38.4126 18.4179 37.4526 18.6419 36.3646 18.6419ZM37.1086 15.5699C37.7646 15.5699 38.3486 15.4419 38.8606 15.1859C39.3726 14.9139 39.7726 14.5379 40.0606 14.0579C40.3486 13.5779 40.4926 13.0259 40.4926 12.4019C40.4926 11.7619 40.3486 11.2099 40.0606 10.7459C39.7726 10.2659 39.3726 9.89787 38.8606 9.64187C38.3486 9.36987 37.7646 9.23387 37.1086 9.23387C36.4526 9.23387 35.8686 9.36987 35.3566 9.64187C34.8446 9.89787 34.4366 10.2659 34.1326 10.7459C33.8446 11.2099 33.7006 11.7619 33.7006 12.4019C33.7006 13.0259 33.8446 13.5779 34.1326 14.0579C34.4366 14.5379 34.8446 14.9139 35.3566 15.1859C35.8686 15.4419 36.4526 15.5699 37.1086 15.5699ZM53.8173 19.4579C52.4413 19.4579 51.2173 19.1699 50.1453 18.5939C49.0893 18.0179 48.2493 17.2339 47.6253 16.2419C47.0173 15.2339 46.7133 14.0899 46.7133 12.8099C46.7133 11.5139 47.0173 10.3699 47.6253 9.37787C48.2493 8.36987 49.0893 7.58587 50.1453 7.02587C51.2173 6.44987 52.4413 6.16187 53.8173 6.16187C55.1773 6.16187 56.3933 6.44987 57.4653 7.02587C58.5373 7.58587 59.3773 8.36187 59.9853 9.35387C60.5933 10.3459 60.8973 11.4979 60.8973 12.8099C60.8973 14.0899 60.5933 15.2339 59.9853 16.2419C59.3773 17.2339 58.5373 18.0179 57.4653 18.5939C56.3933 19.1699 55.1773 19.4579 53.8173 19.4579ZM53.8173 16.3859C54.4413 16.3859 55.0013 16.2419 55.4973 15.9539C55.9933 15.6659 56.3853 15.2579 56.6733 14.7299C56.9613 14.1859 57.1053 13.5459 57.1053 12.8099C57.1053 12.0579 56.9613 11.4179 56.6733 10.8899C56.3853 10.3619 55.9933 9.95387 55.4973 9.66587C55.0013 9.37787 54.4413 9.23387 53.8173 9.23387C53.1933 9.23387 52.6333 9.37787 52.1373 9.66587C51.6413 9.95387 51.2413 10.3619 50.9373 10.8899C50.6493 11.4179 50.5053 12.0579 50.5053 12.8099C50.5053 13.5459 50.6493 14.1859 50.9373 14.7299C51.2413 15.2579 51.6413 15.6659 52.1373 15.9539C52.6333 16.2419 53.1933 16.3859 53.8173 16.3859ZM69.1839 19.5539C67.8399 19.5539 66.5519 19.3779 65.3199 19.0259C64.0879 18.6579 63.0959 18.1859 62.3439 17.6099L63.6639 14.6819C64.3839 15.1939 65.2319 15.6179 66.2079 15.9539C67.1999 16.2739 68.1999 16.4339 69.2079 16.4339C69.9759 16.4339 70.5919 16.3619 71.0559 16.2179C71.5359 16.0579 71.8879 15.8419 72.1119 15.5699C72.3359 15.2979 72.4479 14.9859 72.4479 14.6339C72.4479 14.1859 72.2719 13.8339 71.9199 13.5779C71.5679 13.3059 71.1039 13.0899 70.5279 12.9299C69.9519 12.7539 69.3119 12.5939 68.6079 12.4499C67.9199 12.2899 67.2239 12.0979 66.5199 11.8739C65.8319 11.6499 65.1999 11.3619 64.6239 11.0099C64.0479 10.6579 63.5759 10.1939 63.2079 9.61787C62.8559 9.04187 62.6799 8.30587 62.6799 7.40987C62.6799 6.44987 62.9359 5.57787 63.4479 4.79387C63.9759 3.99387 64.7599 3.36187 65.7999 2.89787C66.8559 2.41787 68.1759 2.17787 69.7599 2.17787C70.8159 2.17787 71.8559 2.30587 72.8799 2.56187C73.9039 2.80187 74.8079 3.16987 75.5919 3.66587L74.3919 6.61787C73.6079 6.16987 72.8239 5.84187 72.0399 5.63387C71.2559 5.40987 70.4879 5.29787 69.7359 5.29787C68.9839 5.29787 68.3679 5.38587 67.8879 5.56187C67.4079 5.73787 67.0639 5.96987 66.8559 6.25787C66.6479 6.52987 66.5439 6.84987 66.5439 7.21787C66.5439 7.64987 66.7199 8.00187 67.0719 8.27387C67.4239 8.52987 67.8879 8.73787 68.4639 8.89787C69.0399 9.05787 69.6719 9.21787 70.3599 9.37787C71.0639 9.53787 71.7599 9.72187 72.4479 9.92987C73.1519 10.1379 73.7919 10.4179 74.3679 10.7699C74.9439 11.1219 75.4079 11.5859 75.7599 12.1619C76.1279 12.7379 76.3119 13.4659 76.3119 14.3459C76.3119 15.2899 76.0479 16.1539 75.5199 16.9379C74.9919 17.7219 74.1999 18.3539 73.1439 18.8339C72.1039 19.3139 70.7839 19.5539 69.1839 19.5539ZM78.7046 19.2659V6.35387H82.4486V19.2659H78.7046ZM80.5766 4.55387C79.8886 4.55387 79.3286 4.35387 78.8966 3.95387C78.4646 3.55387 78.2486 3.05787 78.2486 2.46587C78.2486 1.87387 78.4646 1.37787 78.8966 0.977869C79.3286 0.577868 79.8886 0.377868 80.5766 0.377868C81.2646 0.377868 81.8246 0.569868 82.2566 0.953869C82.6886 1.32187 82.9046 1.80187 82.9046 2.39387C82.9046 3.01787 82.6886 3.53787 82.2566 3.95387C81.8406 4.35387 81.2806 4.55387 80.5766 4.55387ZM91.2033 19.4579C89.6833 19.4579 88.4993 19.0739 87.6513 18.3059C86.8033 17.5219 86.3793 16.3619 86.3793 14.8259V3.49787H90.1233V14.7779C90.1233 15.3219 90.2673 15.7459 90.5553 16.0499C90.8433 16.3379 91.2353 16.4819 91.7313 16.4819C92.3233 16.4819 92.8273 16.3219 93.2433 16.0019L94.2513 18.6419C93.8673 18.9139 93.4033 19.1219 92.8593 19.2659C92.3313 19.3939 91.7793 19.4579 91.2033 19.4579ZM84.3873 9.52187V6.64187H93.3393V9.52187H84.3873ZM102.363 19.4579C100.891 19.4579 99.5946 19.1699 98.4746 18.5939C97.3706 18.0179 96.5146 17.2339 95.9066 16.2419C95.2986 15.2339 94.9946 14.0899 94.9946 12.8099C94.9946 11.5139 95.2906 10.3699 95.8826 9.37787C96.4906 8.36987 97.3146 7.58587 98.3546 7.02587C99.3946 6.44987 100.571 6.16187 101.883 6.16187C103.147 6.16187 104.283 6.43387 105.291 6.97787C106.315 7.50587 107.123 8.27387 107.715 9.28187C108.307 10.2739 108.603 11.4659 108.603 12.8579C108.603 13.0019 108.595 13.1699 108.579 13.3619C108.563 13.5379 108.547 13.7059 108.531 13.8659H98.0426V11.6819H106.563L105.123 12.3299C105.123 11.6579 104.987 11.0739 104.715 10.5779C104.443 10.0819 104.067 9.69787 103.587 9.42587C103.107 9.13787 102.547 8.99387 101.907 8.99387C101.267 8.99387 100.699 9.13787 100.203 9.42587C99.7226 9.69787 99.3466 10.0899 99.0746 10.6019C98.8026 11.0979 98.6666 11.6899 98.6666 12.3779V12.9539C98.6666 13.6579 98.8186 14.2819 99.1226 14.8259C99.4426 15.3539 99.8826 15.7619 100.443 16.0499C101.019 16.3219 101.691 16.4579 102.459 16.4579C103.147 16.4579 103.747 16.3539 104.259 16.1459C104.787 15.9379 105.267 15.6259 105.699 15.2099L107.691 17.3699C107.099 18.0419 106.355 18.5619 105.459 18.9299C104.563 19.2819 103.531 19.4579 102.363 19.4579Z" fill="#4579CB"/>
</svg>
