<svg width="10" height="16" viewBox="0 0 10 16" fill="none" xmlns="http://www.w3.org/2000/svg">
<path d="M0.555068 8.62432L7.67527 15.7444C7.83995 15.9092 8.05979 16 8.29419 16C8.52859 16 8.74843 15.9092 8.91311 15.7444L9.43747 15.2202C9.77867 14.8786 9.77867 14.3234 9.43747 13.9823L3.45846 8.00332L9.4441 2.01768C9.60878 1.85286 9.69971 1.63316 9.69971 1.39888C9.69971 1.16435 9.60878 0.944643 9.4441 0.779701L8.91975 0.255608C8.75493 0.0907965 8.53523 9.53674e-07 8.30082 9.53674e-07C8.06642 9.53674e-07 7.84658 0.0907965 7.6819 0.255608L0.555068 7.38218C0.389997 7.54752 0.299331 7.76826 0.29985 8.00293C0.299331 8.2385 0.389997 8.45912 0.555068 8.62432Z" fill="#666666"/>
</svg>
